<svg id="Layer_1_copy" data-name="Layer 1 copy" xmlns="http://www.w3.org/2000/svg" viewBox="0 0 1989.33 275.62"><title>TEXT BLACK</title><path d="M155.11,188C173.83,140.71,190.64,98,207.64,55.31c9-22.46,24-30.36,46.19-25,8.69,2.1,13.6,6.86,9.72,15.85-16.13,37.41-32.84,74.58-49,112-10.72,24.86-20.81,50-31.23,75-8.46,20.3-10.21,20.86-30.6,21.08-12.44.14-19.4-4.52-24.3-16.07C102.93,178,76.76,118.11,50.84,58.11c-1-2.26-1.65-4.65-2.45-7C43,35.41,45,30.48,60.32,30c31.23-.9,62.5-.35,93.75-.19,13.35.08,15.74,9.05,15.87,20.09.18,16.69-2.43,21.57-15.42,22.91-9.77,1-19.71.55-29.58.5-9.33,0-14.6,3-10.53,13.25C127.15,118.56,140,150.48,155.11,188Z"/><path d="M755.83,172.85c.58-12.79,1.2-20.55,1.23-28.31.14-32.07-.36-64.15.3-96.2C757.69,32,763,29,784.57,29.62c17.8.51,20.77,2.7,20.85,19.43q.41,91.28,0,182.55c-.07,16.43-2.39,18.09-18.18,19.65-18.51,1.84-32.37-2.62-43.48-20-18.08-28.36-38.8-55.1-59.18-81.93-22.7-29.89-46.3-59.1-69.42-88.68a107.12,107.12,0,0,1-9.77-14.2c-3.93-7.13-2.25-13.7,6.09-15.07,14.36-2.35,29.32-6,40.81,8.29,6.06,7.52,14.05,13.53,19.82,21.23,23.66,31.56,46.78,63.53,70.16,95.3C745.51,160.54,749.15,164.64,755.83,172.85Z"/><path d="M1942.67,140.7c0,30.46.29,60.92-.12,91.37-.23,16.67-3.37,19-21.14,19.15-18.1.14-21.56-2.29-22.05-18.21q-.83-27.15,0-54.32c.33-11-2.7-16.85-15-16.56-23.85.57-47.74.4-71.61.08-10.52-.14-14.65,4.07-14.32,14.71.55,18.09.46,36.22,0,54.32-.44,17.42-2.67,19.28-20.46,19.94a130.68,130.68,0,0,1-14.81-.24c-8.78-.68-13.07-5.39-13-14.48.14-33.75.28-67.5-.09-101.25-.14-12.36,6.33-15.34,17-15.28,36.21.19,72.44.13,108.65,0,23.25-.08,23.31-.19,23.53-22.48.12-12.35,0-24.69,0-37,.07-27.81,2.42-31,22.39-30.78,19.09.22,21,2.87,21.07,29.56Q1942.75,100,1942.67,140.7Z"/><path d="M1264.76,142.29c0-29.63-.2-59.26.06-88.9.2-21.31,1.83-23.27,21.83-23.66q38.26-.75,76.54,0c18.69.41,21,3.43,20.8,22.13-.18,18.2-2.38,20.51-21.91,21.29-9.87.39-19.76,0-29.63.11-23.17.22-23.34.25-23.4,22.69-.12,45.27.18,90.55-.15,135.82-.14,19-3.54,22-21.19,22.23-19.37.26-22.65-2.64-22.87-22.83C1264.51,201.56,1264.76,171.93,1264.76,142.29Z"/><path d="M1126.84,141.58c2.88,52.94-40.39,94.23-83.88,107.85-8.7,2.73-17.92,6.07-22.79-5.94-4.33-10.68-.38-28.83,7.23-33.56a37.19,37.19,0,0,1,6.8-2.87c30.08-11,43.43-33.73,43.88-64.46.46-31.72-12.6-55.15-43.58-67.23-14.48-5.65-20.44-21.67-14-36.19,1.57-3.54,6.81-6.76,10.87-7.54,4.52-.87,9.89.45,14.41,2.12C1089.9,50.07,1128.87,88.17,1126.84,141.58Z"/><path d="M893.89,126c.21-29.52,19.3-64.27,60.29-86,5.75-3.05,12.08-6.35,18.34-6.81,8.41-.62,21.8-1.47,24.46,3,4.41,7.3,3.59,19.09,1.66,28.3-.89,4.26-9.19,8-14.82,10-43.85,15.91-61.59,68.22-36,107.19,9.48,14.45,23.2,22.57,39.54,27.47C999.52,212.8,1003.89,225,1000,241c-2.73,11.2-7.09,13-23.13,9.53C927.82,239.93,894.19,196,893.89,126Z"/><path d="M1551.3,54.12c1.67,11-2.7,17.69-16.69,22.76-29.1,10.54-39.59,35.26-39.54,64.74.06,29.26,10,53,38.92,65.4,7,3,17.72,2.91,16.9,14.45-.67,9.46.22,22.55-5.31,27.14-5.31,4.41-18.61,1.89-27.27-1-19.13-6.35-34.13-18.9-45.86-35.66-34.09-48.69-26.39-123.33,17.92-159.2,10.58-8.56,23.68-15,36.64-19.37C1544.84,27.37,1551,33,1551.3,54.12Z"/><path d="M429.7,71.82c-23.88,0-47.76-.28-71.64.11-13.68.23-16.31-7.52-16.35-19,0-16.95,2.15-21.5,15.33-22.84,10.61-1.08,21.38-.53,32.08-.54,35.41,0,70.83-.4,106.21.44,6.21.14,16.42,4.38,17.56,8.65,2.39,9,1.09,19.48-1.19,28.74-.63,2.58-9.94,4.14-15.31,4.25-22.22.46-44.46.19-66.69.19Z"/><path d="M429.76,251.25c-22.23,0-44.46.35-66.68-.11-19-.4-21.52-3.41-21.25-21.73.25-17.23,2.53-20.17,20-20.31q66.69-.54,133.37,0c18,.16,19.25,2.15,19.4,20.39.16,19.35-1.39,21.32-20.63,21.67C472.57,251.55,451.16,251.25,429.76,251.25Z"/><path d="M422.7,120c20.56,0,41.12-.34,61.67.1,15.26.33,18.32,4,18.71,19.21.41,16-3.92,22.44-18.62,22.64q-62.9.87-125.8,0c-14.57-.23-17.07-5.67-17-23.71.06-11.89,3.62-18.63,16.9-18.33C379.94,120.37,401.32,120,422.7,120Z"/><path d="M1648.22,171.05c1.39.1,5.62-.2,9.52.79,9.52,2.43,13.26,7.54,9.66,18.11-7.66,22.51-26.2,35-43.92,47.41-11,7.71-25.2,11.45-38.44,15.26-3.54,1-11.17-3.11-13-6.83-7.5-15.1-.17-28.84,15-36.8a98.82,98.82,0,0,0,28.28-22.3C1628.15,171.8,1627.64,170.88,1648.22,171.05Z"/><path d="M1641.9,111.41c-10.48,1.6-18.76-2.17-26.67-13.52-7-10-19.18-17.17-30.33-23.33-13-7.16-20.84-27.17-12.2-38.68,2.26-3,9-5.14,12.7-4.13,11.78,3.22,24,6.57,34.39,12.71,18.24,10.8,35.65,23.42,45,43.57,8,17.18,4.78,22.34-13.55,23.36C1648.82,111.53,1646.34,111.41,1641.9,111.41Z"/><path d="M1798.48,68.6c0,4.1,0,8.19,0,12.28-.36,24.11-1.18,24.92-24.85,24.82-22.75-.09-23.24-.5-23.54-23.34-.15-11.46.5-23-.14-34.38-.71-12.7,5.35-18,17.26-18.27,4.91-.09,9.83-.06,14.73.09,10.74.34,16.77,5.35,16.51,16.7-.16,7.37,0,14.74,0,22.1Z"/><path d="M646.5,212.13c0,4.91-.36,9.85.06,14.72,1.54,17.63-.58,25.14-26.3,24.36-12-.36-17.9-5.51-17.35-18.17.6-13.88.41-27.8.07-41.69-.28-11.28,4.47-15.86,15.94-16.41,23.87-1.14,27.21,1.36,27.57,24.93C646.56,204,646.5,208.05,646.5,212.13Z"/><path d="M1216.59,73.25c-24.9-.12-28.45-3.92-27.43-25.91.58-12.47,6.2-17.94,18.31-17.67,4.93.1,9.87-.19,14.8-.06,21.46.6,24.11,3.44,23.28,24.62C1244.87,71.52,1242,73.39,1216.59,73.25Z"/></svg>