<svg xmlns="http://www.w3.org/2000/svg" viewBox="0 0 825.04 901.2"><title>Asset 18</title><g id="Layer_2" data-name="Layer 2"><g id="Layer_1_copy" data-name="Layer 1 copy"><path d="M639.37,587.61V66.73c0-4.85.07-9.69,0-14.54C638.79,18.54,656.11-1.72,691.08.11c28.3,1.49,56.74.14,85.12.39,27.59.24,40.42,10.61,46.22,37.57a118.79,118.79,0,0,1,2.51,24.6q.18,387.25.1,774.51c0,2.08,0,4.15,0,6.23-.83,41.62-16.58,57.21-58.5,57.45-29.76.17-59.53-.4-89.28.17-22.62.43-39.24-8.14-52.82-26.61C587.26,823.88,549,774.13,511.11,724.15Q463,660.75,414.72,597.52q-45.71-60-91.45-119.91-44.46-58.33-88.88-116.7-48.9-64.14-97.86-128.22c-30.08-39.43-60-79-90.29-118.26C35.78,100.88,24,88.37,13.62,74.72A70,70,0,0,1,2.3,52.83C-5.26,27.14,11.3,2,38,1.09,78.76-.26,119.63.41,160.46.71c14.09.11,24.67,7.56,33.12,18.66q50.08,65.81,100.47,131.36,51.51,67.35,103,134.73,46.5,60.69,93.16,121.26c31.48,41,62.68,82.18,94.57,122.84,15.9,20.27,33.06,39.56,49.65,59.28Z"/><path d="M.18,744.46C.17,712,.09,679.5.24,647a113.9,113.9,0,0,1,1.54-20.57c4.1-21.7,13.5-32.89,35.47-34.13,36.47-2.05,73.16-2.16,109.67-.82,19.74.73,33.18,12.74,36.28,33.6,1.11,7.46,2.62,15,2.64,22.48q.32,97.42,0,194.87A100,100,0,0,1,183.41,865c-5.22,22.3-17.31,34.27-40.12,35.2-33.1,1.35-66.37,1.5-99.43-.24C15.18,898.4.88,881.78.34,852.26-.32,816.34.18,780.39.18,744.46Z"/></g></g></svg>